<?xml version="1.0" encoding="UTF-8"?>
<svg xmlns="http://www.w3.org/2000/svg" viewBox="45 44 232 232" preserveAspectRatio="xMidYMid meet">
  <!-- Cropped emblem from provided dwellpath logo.svg (transparent background) -->
  <g transform="translate(-352 -239)">
    <path d="M0 0 C19.16541624 15.84397611 33.58978193 38.43172243 36.71875 63.49902344 C39.27942092 92.389556 33.80142766 119.72511197 15.4921875 142.69140625 C13.99101473 144.43766846 12.47077582 146.16776681 10.9296875 147.87890625 C10.24390625 148.6471875 9.558125 149.41546875 8.8515625 150.20703125 C-5.08349147 164.96786619 -23.44184861 174.23197029 -43.0703125 178.87890625 C-43.7303125 178.54890625 -44.3903125 178.21890625 -45.0703125 177.87890625 C-44.23628906 177.18925781 -43.40226563 176.49960937 -42.54296875 175.7890625 C-20.81915266 157.79222615 -20.81915266 157.79222615 -10.73046875 132.34375 C-10.34286082 122.87005271 -10.34286082 122.87005271 -14.42578125 114.6328125 C-14.96847656 114.05402344 -15.51117187 113.47523438 -16.0703125 112.87890625 C-16.93076172 111.90244141 -16.93076172 111.90244141 -17.80859375 110.90625 C-26.59786617 102.04871139 -38.55038581 97.96315344 -50.16015625 94.17578125 C-50.8820816 93.93978714 -51.60400696 93.70379303 -52.34780884 93.46064758 C-55.99559183 92.27503133 -59.64955355 91.11764352 -63.31835938 89.9987793 C-71.31516805 87.50707904 -78.88829927 84.79818178 -85.0703125 78.87890625 C-86.5703125 75.25390625 -86.5703125 75.25390625 -86.0703125 71.87890625 C-81.2594153 66.9725863 -75.63870047 64.71229594 -69.3828125 62.06640625 C-52.84759679 54.84881328 -52.84759679 54.84881328 -42.0703125 40.87890625 C-40.19282131 35.24643268 -40.14007565 29.17282153 -42.5703125 23.69140625 C-47.02177929 15.97137993 -54.84351852 10.91498498 -63.0703125 7.87890625 C-64.3903125 7.87890625 -65.7103125 7.87890625 -67.0703125 7.87890625 C-66.80338287 11.40486038 -66.29534678 12.66168308 -63.70703125 15.16015625 C-62.73378906 15.89234375 -61.76054688 16.62453125 -60.7578125 17.37890625 C-51.80858904 24.16550028 -51.80858904 24.16550028 -50.46875 29.08984375 C-50.42428345 33.19558884 -50.78891798 36.20244423 -53.2578125 39.56640625 C-59.87038393 46.24048997 -69.81628105 48.84211047 -78.5078125 51.81640625 C-96.07638333 57.60403018 -96.07638333 57.60403018 -108.0703125 70.87890625 C-108.66521359 76.7596498 -108.89752791 82.3360717 -105.4296875 87.3359375 C-97.95403978 95.8212273 -86.48695065 99.32239821 -76.23828125 103.41015625 C-67.02301976 107.16415226 -57.59215129 111.44202531 -53.0703125 120.87890625 C-52.2319029 127.58618303 -54.42137739 131.94142363 -58.4453125 137.12890625 C-71.38565375 151.41654695 -92.55132424 162.81959502 -111.0703125 167.87890625 C-122.23392707 167.27090304 -133.96531772 153.33808197 -141.1953125 145.62890625 C-160.05603183 123.72613541 -166.52801499 96.05619613 -165.0703125 67.87890625 C-163.16003971 44.54908759 -151.49870017 23.09697317 -135.0703125 6.87890625 C-134.25691406 6.06679688 -133.44351562 5.2546875 -132.60546875 4.41796875 C-97.16883211 -29.238221 -37.95378613 -30.00635477 0 0 Z " fill="#171F2A" transform="translate(576.0703125,319.12109375)"/>
    <path d="M0 0 C22.5368079 20.46289054 36.96799986 47.15454782 38.61157227 77.87670898 C39.00436425 111.00216667 28.42681859 139.29656747 5.83032227 163.64624023 C-11.10660279 180.66511815 -32.27605486 190.29905366 -55.59155273 195.07983398 C-56.38174805 195.25490479 -57.17194336 195.42997559 -57.98608398 195.61035156 C-85.31894896 200.53549206 -113.82003862 192.06453724 -136.59155273 177.07983398 C-161.68940093 159.52722496 -177.60186342 133.76781491 -183.70874023 103.95092773 C-188.75823006 74.81559677 -182.46700757 44.66129991 -165.45874023 20.46850586 C-148.30629156 -3.40659609 -123.83010426 -19.84523792 -94.81030273 -25.58422852 C-61.40692556 -30.6417821 -25.67124281 -22.62046922 0 0 Z M-141.59155273 9.07983398 C-142.9315332 10.27866211 -142.9315332 10.27866211 -144.29858398 11.50170898 C-162.50588015 28.7158799 -173.78539895 53.26414145 -174.84545898 78.30639648 C-175.68376921 108.65424893 -165.27419136 135.6285396 -144.34155273 157.76733398 C-140.5869937 161.38109705 -136.54554026 164.51438082 -132.34155273 167.57983398 C-131.75083984 168.01384521 -131.16012695 168.44785645 -130.55151367 168.89501953 C-127.22501823 171.23928578 -124.63524691 172.64518847 -120.59155273 173.07983398 C-118.28589462 172.54485975 -118.28589462 172.54485975 -116.03686523 171.48999023 C-115.1819751 171.12188232 -114.32708496 170.75377441 -113.44628906 170.37451172 C-112.09506958 169.76458374 -112.09506958 169.76458374 -110.71655273 169.14233398 C-109.31796021 168.52370483 -109.31796021 168.52370483 -107.89111328 167.89257812 C-95.76068821 162.45717251 -84.71237693 156.83894728 -74.59155273 148.07983398 C-73.74334961 147.4262793 -72.89514648 146.77272461 -72.02124023 146.09936523 C-69.73803691 144.20159012 -68.08815666 142.40282725 -66.34155273 140.01733398 C-65.59131836 139.00993164 -65.59131836 139.00993164 -64.82592773 137.98217773 C-62.28833009 134.07138643 -62.06916784 130.6320452 -62.59155273 126.07983398 C-68.47956191 113.79706074 -83.06230843 109.38899383 -94.82348633 104.80688477 C-103.11441716 101.51967853 -111.57566415 97.81266221 -116.59155273 90.07983398 C-118.3460953 84.81620627 -118.84304292 78.97854248 -116.60327148 73.79077148 C-109.34225195 63.19581904 -96.32530453 59.96817404 -84.8371582 55.8894043 C-70.79156233 51.17922279 -70.79156233 51.17922279 -60.59155273 41.07983398 C-59.60372538 36.95466696 -59.66690558 33.61625675 -61.88452148 29.93139648 C-65.42906021 25.69741658 -69.5023549 22.6286896 -73.98999023 19.46655273 C-75.59155273 18.07983398 -75.59155273 18.07983398 -76.59155273 15.20483398 C-76.59155273 14.50358398 -76.59155273 13.80233398 -76.59155273 13.07983398 C-67.67332949 13.97165631 -60.59475679 18.58521721 -54.59155273 25.07983398 C-51.00149443 29.93044647 -49.93779866 34.62832022 -50.20483398 40.62280273 C-51.59391686 49.44838989 -57.71039827 54.93808245 -64.59155273 60.07983398 C-67.05828249 61.48637379 -69.59633978 62.72322929 -72.15405273 63.95483398 C-72.85425537 64.29925537 -73.55445801 64.64367676 -74.27587891 64.99853516 C-76.99781091 66.33671765 -79.72613813 67.66139923 -82.45678711 68.98168945 C-84.10796723 69.7809309 -85.75610557 70.58644763 -87.40405273 71.39233398 C-88.33862305 71.8422168 -89.27319336 72.29209961 -90.23608398 72.75561523 C-92.48546244 74.02019118 -94.01048568 75.04924787 -95.59155273 77.07983398 C-96.14719627 80.47535498 -96.14719627 80.47535498 -94.59155273 84.07983398 C-86.92338551 91.81590116 -75.84581381 94.39636975 -65.77905273 97.57983398 C-30.53220927 108.79737661 -30.53220927 108.79737661 -21.84936523 122.91186523 C-18.79803968 130.59703612 -19.6235761 139.63668773 -22.52905273 147.26733398 C-29.50628006 161.84719837 -41.63486158 173.70622779 -54.59155273 183.07983398 C-51.39906847 184.67607612 -48.88660055 183.09502562 -45.60913086 182.03564453 C-16.67835522 172.26476922 4.91042429 154.98511314 18.65527344 127.32373047 C30.25116571 102.72557914 30.8445033 73.53911715 21.78344727 48.07983398 C12.02925865 22.59049336 -6.96102672 3.51449955 -31.59301758 -7.84301758 C-68.15492259 -23.84618054 -111.78147561 -17.61002573 -141.59155273 9.07983398 Z " fill="#D9CBAC" transform="translate(585.591552734375,313.920166015625)"/>
  </g>
</svg>

